<svg viewBox="0 0 14 14" fill="none" xmlns="http://www.w3.org/2000/svg">
  <g clip-path="url(#clip0_1809_115)">
    <path
      d="M6.30396 0.991211C7.08113 0.0492229 8.59879 0.537992 8.71997 1.76074L9.01196 4.70996L10.8879 5.22656L11.0579 5.28516C11.8155 5.60162 12.123 6.52198 11.7415 7.24023L11.6487 7.3916L7.7688 12.9131C7.04152 13.9482 5.50503 13.5302 5.29614 12.3555L5.27954 12.2393L4.98657 9.28906L3.11157 8.77344C2.17323 8.51522 1.80045 7.39161 2.35083 6.6084L6.23071 1.08691L6.30396 0.991211Z"
      fill="#35D400" stroke="white" />
    <path
      d="M3.52135 7.62662C3.32063 7.57095 3.30125 7.28646 3.49248 7.20265L5.02654 6.53065C5.16505 6.46998 5.3205 6.56758 5.331 6.72181L5.40717 7.84009C5.41768 7.99428 5.27697 8.1132 5.13158 8.07287L3.52135 7.62662Z"
      fill="#00BD65" />
    <path
      d="M10.5521 6.26337C10.7528 6.31898 10.7722 6.60354 10.581 6.68728L9.04699 7.35927C8.90841 7.42 8.75295 7.32237 8.74248 7.16809L8.66633 6.04989C8.65577 5.89566 8.79653 5.7768 8.94188 5.81709L10.5521 6.26337Z"
      fill="#6BEF66" />
  </g>
  <defs>
    <clipPath id="clip0_1809_115">
      <rect width="14" height="14" fill="white" />
    </clipPath>
  </defs>
</svg>