<svg width="18" height="18" viewBox="0 0 18 18" fill="none" xmlns="http://www.w3.org/2000/svg">
  <path
    d="M12 16.5203V14.3678C12.0281 14.0102 11.9798 13.6506 11.8583 13.3131C11.7367 12.9756 11.5447 12.6678 11.295 12.4103C13.65 12.1478 16.125 11.2553 16.125 7.16028C16.1248 6.11315 15.722 5.10618 15 4.34778C15.3419 3.43166 15.3177 2.41904 14.9325 1.52028C14.9325 1.52028 14.0475 1.25778 12 2.63028C10.281 2.16439 8.46899 2.16439 6.75 2.63028C4.7025 1.25778 3.8175 1.52028 3.8175 1.52028C3.43228 2.41904 3.4081 3.43166 3.75 4.34778C3.02259 5.1118 2.61939 6.12787 2.625 7.18278C2.625 11.2478 5.1 12.1403 7.455 12.4328C7.20824 12.6878 7.01794 12.9918 6.89648 13.3252C6.77501 13.6586 6.7251 14.0138 6.75 14.3678V16.5203"
    stroke="currentColor" stroke-width="1.2" />
  <path d="M6.75 15.0203C4.5 15.75 2.625 15.0203 1.5 12.7703" stroke="currentColor"
    stroke-width="1.2" />
</svg>