<svg width="18" height="18" viewBox="0 0 18 18" fill="none" xmlns="http://www.w3.org/2000/svg">
<path d="M12 16.5202V14.3677C12.0281 14.0101 11.9798 13.6506 11.8583 13.3131C11.7367 12.9756 11.5447 12.6678 11.295 12.4102C13.65 12.1477 16.125 11.2552 16.125 7.16025C16.1248 6.11312 15.722 5.10615 15 4.34775C15.3419 3.43163 15.3177 2.41901 14.9325 1.52025C14.9325 1.52025 14.0475 1.25775 12 2.63025C10.281 2.16436 8.46899 2.16436 6.75 2.63025C4.7025 1.25775 3.8175 1.52025 3.8175 1.52025C3.43228 2.41901 3.4081 3.43163 3.75 4.34775C3.02259 5.11177 2.61939 6.12784 2.625 7.18275C2.625 11.2477 5.1 12.1402 7.455 12.4327C7.20824 12.6877 7.01794 12.9918 6.89648 13.3252C6.77501 13.6586 6.7251 14.0138 6.75 14.3677V16.5202" stroke="currentColor" stroke-width="1.2"/>
<path d="M6.75 15.0202C4.5 15.75 2.625 15.0202 1.5 12.7702" stroke="currentColor" stroke-width="1.2"/>
</svg>
