<svg
  width="16"
  height="16"
  viewBox="0 0 20 20"
  xmlns="http://www.w3.org/2000/svg"
>
  <path
    fill="currentColor"
    d="M4.28571 0C3.14907 0 2.05898 0.451529 1.25526 1.25526C0.451529 2.05898 0 3.14907 0 4.28571V15.7143C0 16.8509 0.451529 17.941 1.25526 18.7447C2.05898 19.5485 3.14907 20 4.28571 20H15.7143C16.8509 20 17.941 19.5485 18.7447 18.7447C19.5485 17.941 20 16.8509 20 15.7143V4.28571C20 3.14907 19.5485 2.05898 18.7447 1.25526C17.941 0.451529 16.8509 0 15.7143 0H4.28571ZM1.42857 4.28571C1.42857 3.52795 1.72959 2.80123 2.26541 2.26541C2.80123 1.72959 3.52795 1.42857 4.28571 1.42857H15.7143C16.472 1.42857 17.1988 1.72959 17.7346 2.26541C18.2704 2.80123 18.5714 3.52795 18.5714 4.28571V15.7143C18.5714 16.472 18.2704 17.1988 17.7346 17.7346C17.1988 18.2704 16.472 18.5714 15.7143 18.5714H4.28571C3.52795 18.5714 2.80123 18.2704 2.26541 17.7346C1.72959 17.1988 1.42857 16.472 1.42857 15.7143V4.28571ZM5 4.28571C4.81056 4.28571 4.62888 4.36097 4.49492 4.49492C4.36097 4.62888 4.28571 4.81056 4.28571 5C4.28571 5.18944 4.36097 5.37112 4.49492 5.50508C4.62888 5.63903 4.81056 5.71429 5 5.71429C7.46272 5.71429 9.82458 6.6926 11.566 8.43401C13.3074 10.1754 14.2857 12.5373 14.2857 15C14.2857 15.1894 14.361 15.3711 14.4949 15.5051C14.6289 15.639 14.8106 15.7143 15 15.7143C15.1894 15.7143 15.3711 15.639 15.5051 15.5051C15.639 15.3711 15.7143 15.1894 15.7143 15C15.7143 12.1584 14.5855 9.43317 12.5761 7.42386C10.5668 5.41454 7.84161 4.28571 5 4.28571ZM4.28571 9.28571C4.28571 9.09627 4.36097 8.91459 4.49492 8.78064C4.62888 8.64668 4.81056 8.57143 5 8.57143C6.70496 8.57143 8.3401 9.24872 9.54569 10.4543C10.7513 11.6599 11.4286 13.295 11.4286 15C11.4286 15.1894 11.3533 15.3711 11.2194 15.5051C11.0854 15.639 10.9037 15.7143 10.7143 15.7143C10.5248 15.7143 10.3432 15.639 10.2092 15.5051C10.0753 15.3711 10 15.1894 10 15C10 13.6739 9.47322 12.4021 8.53553 11.4645C7.59785 10.5268 6.32608 10 5 10C4.81056 10 4.62888 9.92475 4.49492 9.79079C4.36097 9.65684 4.28571 9.47515 4.28571 9.28571ZM5.71429 15.7143C6.09317 15.7143 6.45653 15.5638 6.72444 15.2959C6.99235 15.028 7.14286 14.6646 7.14286 14.2857C7.14286 13.9068 6.99235 13.5435 6.72444 13.2756C6.45653 13.0077 6.09317 12.8571 5.71429 12.8571C5.33541 12.8571 4.97204 13.0077 4.70413 13.2756C4.43622 13.5435 4.28571 13.9068 4.28571 14.2857C4.28571 14.6646 4.43622 15.028 4.70413 15.2959C4.97204 15.5638 5.33541 15.7143 5.71429 15.7143Z"
  />
</svg>