<svg width="18" height="18" viewBox="0 0 18 18" fill="none" xmlns="http://www.w3.org/2000/svg">
<path d="M4.42857 1C3.51926 1 2.64718 1.36122 2.00421 2.00421C1.36122 2.64718 1 3.51926 1 4.42857V13.5714C1 14.4807 1.36122 15.3528 2.00421 15.9958C2.64718 16.6388 3.51926 17 4.42857 17H13.5714C14.4807 17 15.3528 16.6388 15.9958 15.9958C16.6388 15.3528 17 14.4807 17 13.5714V4.42857C17 3.51926 16.6388 2.64718 15.9958 2.00421C15.3528 1.36122 14.4807 1 13.5714 1H4.42857ZM2.14286 4.42857C2.14286 3.82236 2.38367 3.24098 2.81233 2.81233C3.24098 2.38367 3.82236 2.14286 4.42857 2.14286H13.5714C14.1776 2.14286 14.759 2.38367 15.1877 2.81233C15.6163 3.24098 15.8571 3.82236 15.8571 4.42857V13.5714C15.8571 14.1776 15.6163 14.759 15.1877 15.1877C14.759 15.6163 14.1776 15.8571 13.5714 15.8571H4.42857C3.82236 15.8571 3.24098 15.6163 2.81233 15.1877C2.38367 14.759 2.14286 14.1776 2.14286 13.5714V4.42857ZM5 4.42857C4.84845 4.42857 4.7031 4.48878 4.59594 4.59594C4.48878 4.7031 4.42857 4.84845 4.42857 5C4.42857 5.15155 4.48878 5.2969 4.59594 5.40406C4.7031 5.51122 4.84845 5.57143 5 5.57143C6.97018 5.57143 8.85966 6.35408 10.2528 7.74721C11.6459 9.14032 12.4286 11.0298 12.4286 13C12.4286 13.1515 12.4888 13.2969 12.5959 13.4041C12.7031 13.5112 12.8485 13.5714 13 13.5714C13.1515 13.5714 13.2969 13.5112 13.4041 13.4041C13.5112 13.2969 13.5714 13.1515 13.5714 13C13.5714 10.7267 12.6684 8.54654 11.0609 6.93909C9.45344 5.33163 7.27329 4.42857 5 4.42857ZM4.42857 8.42857C4.42857 8.27702 4.48878 8.13167 4.59594 8.02451C4.7031 7.91734 4.84845 7.85714 5 7.85714C6.36397 7.85714 7.67208 8.39898 8.63655 9.36344C9.60104 10.3279 10.1429 11.636 10.1429 13C10.1429 13.1515 10.0826 13.2969 9.97552 13.4041C9.86832 13.5112 9.72296 13.5714 9.57144 13.5714C9.41984 13.5714 9.27456 13.5112 9.16736 13.4041C9.06024 13.2969 9 13.1515 9 13C9 11.9391 8.57858 10.9217 7.82842 10.1716C7.07828 9.42144 6.06086 9 5 9C4.84845 9 4.7031 8.9398 4.59594 8.83263C4.48878 8.72547 4.42857 8.58012 4.42857 8.42857ZM5.57143 13.5714C5.87454 13.5714 6.16522 13.451 6.37955 13.2367C6.59388 13.0224 6.71429 12.7317 6.71429 12.4286C6.71429 12.1254 6.59388 11.8348 6.37955 11.6205C6.16522 11.4062 5.87454 11.2857 5.57143 11.2857C5.26833 11.2857 4.97763 11.4062 4.7633 11.6205C4.54898 11.8348 4.42857 12.1254 4.42857 12.4286C4.42857 12.7317 4.54898 13.0224 4.7633 13.2367C4.97763 13.451 5.26833 13.5714 5.57143 13.5714Z" fill="currentColor"/>
</svg>
