<svg width="18" height="18" viewBox="0 0 18 18" fill="none" xmlns="http://www.w3.org/2000/svg">
  <g clip-path="url(#clip0_407_12)">
    <path
      d="M17.25 2.25748C17.25 2.25748 15.7365 3.15148 14.895 3.40498C14.4433 2.88561 13.843 2.5175 13.1753 2.35043C12.5076 2.18335 11.8046 2.22538 11.1616 2.47082C10.5185 2.71626 9.96633 3.15328 9.57974 3.72277C9.19314 4.29225 8.99077 4.96673 9 5.65498V6.40498C7.68198 6.43916 6.37596 6.14684 5.19826 5.55407C4.02056 4.96129 3.00774 4.08646 2.25 3.00748C2.25 3.00748 -0.75 9.75748 6 12.7575C4.4554 13.806 2.61537 14.3317 0.75 14.2575C7.5 18.0075 15.75 14.2575 15.75 5.63248C15.75 5.42398 15.729 5.21548 15.69 5.00998C16.455 4.25548 17.25 2.25748 17.25 2.25748Z"
      stroke="currentColor" stroke-width="1.2" />
  </g>
  <defs>
    <clipPath id="clip0_407_12">
      <rect width="18" height="18" fill="white" />
    </clipPath>
  </defs>
</svg>