<svg width="18" height="18" viewBox="0 0 18 18" fill="none" xmlns="http://www.w3.org/2000/svg">
<path d="M16.5 3.00708C16.5 3.00708 15.0782 3.8469 14.2877 4.08504C13.8634 3.59715 13.2995 3.25134 12.6722 3.0944C12.045 2.93745 11.3846 2.97693 10.7806 3.2075C10.1765 3.43806 9.65777 3.84859 9.2946 4.38357C8.93144 4.91854 8.74133 5.55214 8.75 6.19868V6.90322C7.51186 6.93533 6.28499 6.66073 5.17867 6.10388C4.07234 5.54703 3.12091 4.72521 2.40909 3.71163C2.40909 3.71163 -0.409091 10.0525 5.93182 12.8707C4.48083 13.8557 2.75232 14.3495 1 14.2798C7.34091 17.8025 15.0909 14.2798 15.0909 6.17754C15.0909 5.98168 15.0712 5.78581 15.0345 5.59277C15.7532 4.88399 16.5 3.00708 16.5 3.00708Z" stroke="currentColor" stroke-width="1.2"/>
</svg>
