<svg
  width="20"
  height="16"
  viewBox="0 0 20 16"
  fill="none"
  xmlns="http://www.w3.org/2000/svg"
>
  <path
    d="M2.97885 5.20241C5.49955 2.71598 8.43658 1.58227 9.54103 2.67469C10.0292 3.15671 10.0755 3.98882 9.76283 4.98339C9.60103 5.48337 10.2392 5.2078 10.2392 5.2078C12.2763 4.36582 14.0543 4.31555 14.7024 5.23203C15.0478 5.71855 15.0142 6.40434 14.6952 7.19784C14.547 7.56318 14.7388 7.61973 15.0224 7.70321C16.1696 8.05508 17.4477 8.90244 17.4477 10.3997C17.4477 12.8798 13.8298 16 8.39022 16C4.24056 16 0 14.0135 0 10.7471C0 9.03978 1.09446 7.06499 2.97885 5.20241ZM14.0079 10.3566C13.7925 8.21037 10.9336 6.73108 7.62392 7.05602C4.3151 7.37827 1.80349 9.38088 2.01802 11.5262C2.23345 13.6751 5.09231 15.1517 8.40203 14.8295C11.7118 14.5045 14.2206 12.5028 14.0079 10.3566ZM4.69143 10.45C5.37683 9.07838 7.15668 8.30462 8.73292 8.70855C10.3619 9.12416 11.1936 10.642 10.5291 12.1186C9.85282 13.6294 7.90844 14.4345 6.2613 13.9085C4.66871 13.4005 3.99513 11.8485 4.69143 10.45ZM7.15941 10.9688C6.64763 10.756 5.98587 10.976 5.66862 11.4652C5.34683 11.9562 5.49682 12.5432 6.00587 12.7721C6.52219 13.0028 7.21031 12.7838 7.52938 12.2784C7.8439 11.7686 7.67846 11.186 7.15941 10.9688ZM8.42021 10.45C8.22387 10.3746 7.97843 10.4661 7.86299 10.6582C7.75118 10.8503 7.8139 11.0693 8.01116 11.1492C8.21023 11.2318 8.46657 11.1384 8.58202 10.9419C8.69383 10.7444 8.62202 10.5236 8.42021 10.45ZM13.5962 0.114648C14.5053 -0.0764067 15.4493 -0.0280271 16.3335 0.254934C17.2178 0.537894 18.0111 1.04549 18.6339 1.72679C19.2573 2.40917 19.688 3.24149 19.8827 4.1402C20.0773 5.03891 20.0291 5.97237 19.7429 6.84687C19.7122 6.94139 19.6629 7.02898 19.5977 7.10458C19.5326 7.18018 19.4529 7.24229 19.3633 7.28735C19.2738 7.33241 19.1761 7.35952 19.0758 7.36711C18.9756 7.3747 18.8748 7.36263 18.7794 7.33159C18.5861 7.26951 18.4258 7.13427 18.3334 6.95556C18.241 6.77684 18.2242 6.56924 18.2867 6.37831C18.4905 5.7572 18.5251 5.09403 18.387 4.45553C18.2489 3.81702 17.943 3.22568 17.4999 2.74099C17.0569 2.25631 16.4925 1.89537 15.8634 1.69449C15.2342 1.4936 14.5626 1.45985 13.9161 1.59663C13.7222 1.62648 13.5241 1.5819 13.3624 1.47204C13.2007 1.36218 13.0878 1.19538 13.0467 1.00587C13.0056 0.816358 13.0396 0.618517 13.1416 0.452952C13.2436 0.287387 13.4059 0.166658 13.5952 0.115546L13.5962 0.114648ZM14.1652 2.74111C14.6078 2.64779 15.0675 2.67117 15.498 2.80891C15.9286 2.94664 16.3148 3.19388 16.6179 3.52576C16.921 3.85763 17.1303 4.26246 17.2248 4.69954C17.3192 5.13661 17.2954 5.59053 17.1559 6.01567C17.1305 6.0987 17.0886 6.1759 17.0327 6.24273C16.9767 6.30956 16.9078 6.36466 16.8299 6.40481C16.7521 6.44495 16.6669 6.46933 16.5793 6.4765C16.4918 6.48368 16.4037 6.4735 16.3202 6.44658C16.2368 6.41966 16.1596 6.37653 16.0932 6.31973C16.0268 6.26294 15.9726 6.19361 15.9338 6.11583C15.8949 6.03806 15.8722 5.9534 15.867 5.86683C15.8617 5.78026 15.8741 5.69353 15.9032 5.61173C15.9725 5.40403 15.9848 5.18192 15.939 4.96797C15.8932 4.75403 15.7908 4.55588 15.6423 4.39365C15.4933 4.23182 15.3039 4.11136 15.0931 4.04427C14.8823 3.97718 14.6573 3.9658 14.4406 4.01126C14.3562 4.02912 14.269 4.03037 14.184 4.01496C14.0991 3.99954 14.018 3.96775 13.9455 3.92141C13.7991 3.82781 13.6963 3.68061 13.6598 3.51218C13.6233 3.34374 13.656 3.16788 13.7508 3.02328C13.8456 2.87868 13.9946 2.77718 14.1652 2.74111Z"
    fill="black"
  />
</svg>